<svg xmlns="http://www.w3.org/2000/svg" version="1.1" xmlns:xlink="http://www.w3.org/1999/xlink" xmlns:svgjs="http://svgjs.dev/svgjs" width="1000" height="406" viewBox="0 0 1000 406"><g transform="matrix(1,0,0,1,-0.6060604645514331,0.6245079055279064)"><svg viewBox="0 0 396 161" data-background-color="#89939e" preserveAspectRatio="xMidYMid meet" height="406" width="1000" xmlns="http://www.w3.org/2000/svg" xmlns:xlink="http://www.w3.org/1999/xlink"><g id="tight-bounds" transform="matrix(1,0,0,1,0.24000005603761565,-0.24764941981217703)"><svg viewBox="0 0 395.52 161.49529910648704" height="161.49529910648704" width="395.52"><g><svg viewBox="0 0 395.52 161.49529910648704" height="161.49529910648704" width="395.52"><g transform="matrix(1,0,0,1,0,99.810573717886)"><svg viewBox="0 0 395.52 61.68472538860103" height="61.68472538860103" width="395.52"><g id="textblocktransform"><svg viewBox="0 0 395.52 61.68472538860103" height="61.68472538860103" width="395.52" id="textblock"><g><svg viewBox="0 0 395.52 61.68472538860103" height="61.68472538860103" width="395.52"><g transform="matrix(1,0,0,1,0,0)"><svg width="395.52" viewBox="1.6800000667572021 -36.25 235.5900115966797 36.7400016784668" height="61.68472538860103" data-palette-color="#ffffff"><path d="M27.49 0L24.44-9.23 10.11-9.23 7.1 0 1.68 0 14.36-35.77 21.22-35.77 33.89 0 27.49 0ZM11.4-13.38L23.1-13.38 18.85-26.61 17.5-31.71 17.02-31.71 15.7-26.61 11.4-13.38ZM53.42-9.5L61.94-35.77 67.62-35.77 54.78 0 47.97 0 35.15-35.77 41.72-35.77 50.24-9.5 51.61-4.44 52.07-4.44 53.42-9.5ZM90.3-9.5L98.82-35.77 104.51-35.77 91.67 0 84.86 0 72.04-35.77 78.61-35.77 87.13-9.5 88.5-4.44 88.96-4.44 90.3-9.5ZM117.18-35.77L117.18 0 111.13 0 111.13-35.77 117.18-35.77ZM133.29-35.77L133.29 0 127.24 0 127.24-35.77 133.29-35.77ZM157.53 0L149.97 0 135.54-18.07 149.87-35.77 156.17-35.77 141.45-19.12 157.53 0ZM179.5-3.81L179.5-3.81Q182.14-3.81 184.29-4.91 186.44-6.01 187.96-7.9 189.49-9.79 190.32-12.33 191.15-14.87 191.15-17.75L191.15-17.75Q191.15-20.8 190.23-23.4 189.32-26 187.71-27.91 186.1-29.81 183.9-30.88 181.7-31.96 179.14-31.96L179.14-31.96Q176.48-31.96 174.33-30.83 172.18-29.71 170.67-27.8 169.15-25.88 168.33-23.34 167.52-20.8 167.52-17.94L167.52-17.94Q167.52-14.89 168.42-12.3 169.32-9.72 170.92-7.84 172.52-5.96 174.72-4.88 176.92-3.81 179.5-3.81ZM178.67 0.49L178.67 0.49Q176.31 0.49 174.08-0.06 171.86-0.61 169.92-1.65 167.98-2.69 166.38-4.2 164.78-5.71 163.62-7.67 162.46-9.62 161.83-11.98 161.19-14.33 161.19-17.04L161.19-17.04Q161.19-19.85 161.88-22.36 162.56-24.88 163.79-27 165.03-29.13 166.76-30.85 168.49-32.57 170.58-33.76 172.67-34.96 175.06-35.61 177.45-36.25 180.04-36.25L180.04-36.25Q183.53-36.25 186.69-35.07 189.86-33.89 192.25-31.63 194.64-29.37 196.06-26.12 197.47-22.88 197.47-18.75L197.47-18.75Q197.47-15.97 196.8-13.45 196.13-10.94 194.91-8.8 193.69-6.67 191.98-4.94 190.27-3.22 188.18-2.01 186.1-0.81 183.69-0.16 181.29 0.49 178.67 0.49ZM210.82 0L205.62 0 205.62-35.77 214.17-35.77 229.38-12.99 231.89-8.28 232.38-8.28 232.07-13.6 232.07-35.77 237.27-35.77 237.27 0 231.58 0 213.29-27.27 211-31.79 210.51-31.79 210.82-26.59 210.82 0Z" opacity="1" transform="matrix(1,0,0,1,0,0)" fill="#ffffff" class="undefined-text-0" data-fill-palette-color="primary" id="text-0"></path></svg></g></svg></g></svg></g></svg></g><g transform="matrix(1,0,0,1,136.76250588708615,0)"><svg viewBox="0 0 121.99498822582765 85.24829048704663" height="85.24829048704663" width="121.99498822582765"><g><svg xmlns="http://www.w3.org/2000/svg" xmlns:xlink="http://www.w3.org/1999/xlink" version="1.1" x="8" y="0" viewBox="0 9.78600025177002 100.0003433227539 80.42699432373047" enable-background="new 0 0 100 100" xml:space="preserve" width="105.99498822582765" height="85.24829048704663" class="icon-icon-0" data-fill-palette-color="accent" id="icon-0"><path d="M49.942 52.994c13.552-0.488 27.103-0.977 40.653-1.465-2.527-4.177-3.159-7.831-7.989-8.461-7.229-0.94-14.458-1.883-21.688-2.826-14.023-1.827-28.05-3.654-42.075-5.48C20.101 36.792 39.724 53.361 49.942 52.994z" fill="#ffffff" data-fill-palette-color="accent"></path><path d="M0 9.786c4.391 7.257 26.615 23.072 32.953 23.886 17.33 2.231 34.657 4.46 51.986 6.688-3.393-5.607-4.18-9.35-10.312-10.959-8.904-2.341-17.812-4.683-26.717-7.023C31.94 18.182 15.97 13.984 0 9.786z" fill="#ffffff" data-fill-palette-color="accent"></path><path d="M63.108 66.207c10.413-2.219 20.826-4.439 31.241-6.66-2.028-3.346-2.034-5.359-5.827-5.189-6.158 0.273-12.314 0.549-18.471 0.822-11.343 0.506-22.686 1.014-34.028 1.518C37.298 58.064 54.94 67.947 63.108 66.207z" fill="#ffffff" data-fill-palette-color="accent"></path><path d="M87.682 90.213c5.725-3.719 7.262-7.721 10.519-13.807 3.651-6.824 1.257-7.844-2.821-14.596-0.417-0.688-5.842 0.232-6.453 0.904-0.745 0.818-0.248 5.455-0.294 6.496C88.315 76.211 87.998 83.213 87.682 90.213z" fill="#ffffff" data-fill-palette-color="accent"></path><path d="M86.35 63.447c-3.795 0.809-8.604 0.191-9.572 4.229-1.373 5.736-2.746 11.475-4.12 17.211C81.904 82.678 86.028 71.582 86.35 63.447z" fill="#ffffff" data-fill-palette-color="accent"></path><path d="M74.666 66.121c-9.148 1.953-8.956 4.611-12.879 13.18C68.007 78.711 73.811 71.941 74.666 66.121z" fill="#ffffff" data-fill-palette-color="accent"></path></svg></g></svg></g><g><rect width="136.76250588708615" height="5.562792194180642" y="78.68549829286599" x="258.75749411291383" fill="#ffffff" data-fill-palette-color="accent"></rect><rect width="136.76250588708615" height="5.562792194180642" y="78.68549829286599" x="0" fill="#ffffff" data-fill-palette-color="accent"></rect><rect width="136.76250588708615" height="5.562792194180642" y="67.5599139045047" x="258.75749411291383" fill="#ffffff" data-fill-palette-color="accent"></rect><rect width="136.76250588708615" height="5.562792194180642" y="67.5599139045047" x="0" fill="#ffffff" data-fill-palette-color="accent"></rect></g></svg></g><defs></defs></svg><rect width="395.52" height="161.49529910648704" fill="none" stroke="none" visibility="hidden"></rect></g></svg></g></svg>